<svg width="27" height="25" viewBox="0 0 27 25" fill="none" xmlns="http://www.w3.org/2000/svg">
<path d="M1.29492 3.5L4.37044 3.5" stroke="#8B8B8B" stroke-width="2" stroke-linecap="round"/>
<path d="M10.5463 3.5C10.5463 4.85742 9.41117 6 7.95822 6C6.50527 6 5.37012 4.85742 5.37012 3.5C5.37012 2.14258 6.50527 1 7.95822 1C9.41117 1 10.5463 2.14258 10.5463 3.5Z" stroke="#8B8B8B" stroke-width="2"/>
<path d="M11.5469 3.5L25.8993 3.5" stroke="#8B8B8B" stroke-width="2" stroke-linecap="round"/>
<path d="M15.6475 12.5L1.29506 12.5" stroke="#8B8B8B" stroke-width="2" stroke-linecap="round"/>
<path d="M16.647 12.5C16.647 13.8574 17.7822 15 19.2351 15C20.6881 15 21.8232 13.8574 21.8232 12.5C21.8232 11.1426 20.6881 10 19.2351 10C17.7822 10 16.647 11.1426 16.647 12.5Z" stroke="#8B8B8B" stroke-width="2"/>
<path d="M25.8994 12.5L22.8239 12.5" stroke="#8B8B8B" stroke-width="2" stroke-linecap="round"/>
<path d="M1.29492 21.5L4.37044 21.5" stroke="#8B8B8B" stroke-width="2" stroke-linecap="round"/>
<path d="M10.5463 21.5C10.5463 22.8574 9.41117 24 7.95822 24C6.50527 24 5.37012 22.8574 5.37012 21.5C5.37012 20.1426 6.50527 19 7.95822 19C9.41117 19 10.5463 20.1426 10.5463 21.5Z" stroke="#8B8B8B" stroke-width="2"/>
<path d="M11.5469 21.5L25.8993 21.5" stroke="#8B8B8B" stroke-width="2" stroke-linecap="round"/>
</svg>
