<svg width="47.000000" height="46.000000" viewBox="0 0 47 46" fill="none" xmlns="http://www.w3.org/2000/svg" >
	<desc>
			Created with Pixso.
	</desc>
	<defs>
		<clipPath id="clip10_8248">
			<rect id="Тип проекта" rx="22.500000" width="46.000000" height="45.000000" transform="translate(0.500000 0.500000)" fill="white" fill-opacity="0"/>
		</clipPath>
	</defs>
	<g opacity="0.500000">
		<rect id="Тип проекта" rx="22.500000" width="46.000000" height="45.000000" transform="translate(0.500000 0.500000)" fill="#000000" fill-opacity="1.000000"/>
		<g clip-path="url(#clip10_8248)">
			<rect id="тип проекта" rx="-0.500000" width="27.000000" height="27.000000" transform="translate(10.500000 9.500000)" fill="#FFFFFF" fill-opacity="0"/>
			<path id="Vector" d="M27.5 35.54L20.5 35.54C14.16 35.54 11.45 32.83 11.45 26.5L11.45 19.5C11.45 13.16 14.16 10.45 20.5 10.45L26.33 10.45C26.81 10.45 27.2 10.85 27.2 11.33C27.2 11.81 26.81 12.2 26.33 12.2L20.5 12.2C15.12 12.2 13.2 14.12 13.2 19.5L13.2 26.5C13.2 31.87 15.12 33.79 20.5 33.79L27.5 33.79C32.87 33.79 34.79 31.87 34.79 26.5L34.79 20.66C34.79 20.18 35.18 19.79 35.66 19.79C36.14 19.79 36.54 20.18 36.54 20.66L36.54 26.5C36.54 32.83 33.83 35.54 27.5 35.54Z" fill="#FFFFFF" fill-opacity="1.000000" fill-rule="nonzero"/>
			<path id="Vector" d="M35.66 21.54L31 21.54C27 21.54 25.45 19.99 25.45 16L25.45 11.33C25.45 10.98 25.66 10.65 25.99 10.52C26.32 10.38 26.69 10.47 26.95 10.71L36.28 20.04C36.52 20.29 36.61 20.67 36.47 21C36.33 21.33 36.01 21.54 35.66 21.54ZM27.2 13.44L27.2 16C27.2 19.01 27.98 19.79 31 19.79L33.55 19.79L27.2 13.44Z" fill="#FFFFFF" fill-opacity="1.000000" fill-rule="nonzero"/>
			<g opacity="0.000000">
				<path id="Vector" d="M10 9L38 9L38 37L10 37L10 9Z" fill="#FFFFFF" fill-opacity="1.000000" fill-rule="evenodd"/>
			</g>
		</g>
	</g>
</svg>
