<svg width="109.000000" height="109.000000" viewBox="0 0 109 109" fill="none" xmlns="http://www.w3.org/2000/svg">
	<desc>
			Created with Pixso.
	</desc>
	<defs>
		<clipPath id="clip4479_6278">
			<rect id="иконки пользователя" rx="54.000000" width="108.000000" height="108.000000" transform="translate(0.500000 0.500000)" fill="white" fill-opacity="0"/>
		</clipPath>
	</defs>
	<rect id="иконки пользователя" rx="54.000000" width="108.000000" height="108.000000" transform="translate(0.500000 0.500000)" fill="#000000" fill-opacity="0.120000"/>
	<g clip-path="url(#clip4479_6278)">
		<path id="Icon" d="M52.83 53.67L56.17 53.67C59.71 53.67 63.11 52.24 65.62 49.7C68.13 47.16 69.53 43.72 69.53 40.13L69.53 31.19C69.54 28.17 68.36 25.27 66.25 23.14C64.15 21 61.29 19.8 58.31 19.81L50.69 19.81C47.7 19.8 44.84 21 42.74 23.14C40.63 25.27 39.45 28.17 39.46 31.19L39.46 40.13C39.46 47.61 45.44 53.67 52.83 53.67ZM38.99 87.53L70 87.53C73.38 87.4 76.53 85.75 78.58 83.04C80.64 80.32 81.39 76.81 80.63 73.48L79.83 69.62C78.91 64.39 74.47 60.55 69.23 60.44L39.76 60.44C34.52 60.55 30.09 64.39 29.16 69.62L28.36 73.48C27.6 76.81 28.35 80.32 30.41 83.04C32.46 85.75 35.61 87.4 38.99 87.53Z" fill="#000000" fill-opacity="0.560000" fill-rule="evenodd"/>
	</g>
</svg>
