<svg width="47.000000" height="46.000000" viewBox="0 0 47 46" fill="none" xmlns="http://www.w3.org/2000/svg">
	<desc>
			Created with Pixso.
	</desc>
	<defs>
		<clipPath id="clip10_8265">
			<rect id="Frame 17" rx="22.500000" width="46.000000" height="45.000000" transform="translate(0.500000 0.500000)" fill="white" fill-opacity="0"/>
		</clipPath>
	</defs>
	<g opacity="0.500000">
		<rect id="Frame 17" rx="22.500000" width="46.000000" height="45.000000" transform="translate(0.500000 0.500000)" fill="#000000" fill-opacity="1.000000"/>
		<g clip-path="url(#clip10_8265)">
			<rect id="школа" rx="-0.500000" width="27.000000" height="27.000000" transform="translate(10.500000 9.500000)" fill="#FFFFFF" fill-opacity="0"/>
			<path id="Vector" d="M34.5 22.7L13.5 22.7C12.37 22.7 11.45 21.78 11.45 20.66L11.45 16.79C11.45 16 12 15.19 12.74 14.9L23.24 10.7C23.68 10.52 24.31 10.52 24.75 10.7L35.25 14.9C35.99 15.19 36.54 16.01 36.54 16.79L36.54 20.66C36.54 21.78 35.62 22.7 34.5 22.7ZM24 12.31C23.95 12.31 23.9 12.31 23.88 12.32L13.39 16.52C13.32 16.56 13.2 16.71 13.2 16.79L13.2 20.66C13.2 20.83 13.33 20.95 13.5 20.95L34.5 20.95C34.66 20.95 34.79 20.83 34.79 20.66L34.79 16.79C34.79 16.71 34.68 16.56 34.6 16.52L24.1 12.32C24.08 12.31 24.04 12.31 24 12.31Z" fill="#FFFFFF" fill-opacity="1.000000" fill-rule="nonzero"/>
			<path id="Vector" d="M35.66 35.54L12.33 35.54C11.85 35.54 11.45 35.14 11.45 34.66L11.45 31.16C11.45 30.04 12.37 29.12 13.5 29.12L34.5 29.12C35.62 29.12 36.54 30.04 36.54 31.16L36.54 34.66C36.54 35.14 36.14 35.54 35.66 35.54ZM13.2 33.79L34.79 33.79L34.79 31.16C34.79 31 34.66 30.87 34.5 30.87L13.5 30.87C13.33 30.87 13.2 31 13.2 31.16L13.2 33.79Z" fill="#FFFFFF" fill-opacity="1.000000" fill-rule="nonzero"/>
			<path id="Vector" d="M14.66 30.87C14.18 30.87 13.79 30.47 13.79 30L13.79 21.83C13.79 21.35 14.18 20.95 14.66 20.95C15.14 20.95 15.54 21.35 15.54 21.83L15.54 30C15.54 30.47 15.14 30.87 14.66 30.87Z" fill="#FFFFFF" fill-opacity="1.000000" fill-rule="nonzero"/>
			<path id="Vector" d="M19.33 30.87C18.85 30.87 18.45 30.47 18.45 30L18.45 21.83C18.45 21.35 18.85 20.95 19.33 20.95C19.81 20.95 20.2 21.35 20.2 21.83L20.2 30C20.2 30.47 19.81 30.87 19.33 30.87Z" fill="#FFFFFF" fill-opacity="1.000000" fill-rule="nonzero"/>
			<path id="Vector" d="M24 30.87C23.52 30.87 23.12 30.47 23.12 30L23.12 21.83C23.12 21.35 23.52 20.95 24 20.95C24.47 20.95 24.87 21.35 24.87 21.83L24.87 30C24.87 30.47 24.47 30.87 24 30.87Z" fill="#FFFFFF" fill-opacity="1.000000" fill-rule="nonzero"/>
			<path id="Vector" d="M28.66 30.87C28.18 30.87 27.79 30.47 27.79 30L27.79 21.83C27.79 21.35 28.18 20.95 28.66 20.95C29.14 20.95 29.54 21.35 29.54 21.83L29.54 30C29.54 30.47 29.14 30.87 28.66 30.87Z" fill="#FFFFFF" fill-opacity="1.000000" fill-rule="nonzero"/>
			<path id="Vector" d="M33.33 30.87C32.85 30.87 32.45 30.47 32.45 30L32.45 21.83C32.45 21.35 32.85 20.95 33.33 20.95C33.81 20.95 34.2 21.35 34.2 21.83L34.2 30C34.2 30.47 33.81 30.87 33.33 30.87Z" fill="#FFFFFF" fill-opacity="1.000000" fill-rule="nonzero"/>
			<path id="Vector" d="M36.83 35.54L11.16 35.54C10.68 35.54 10.29 35.14 10.29 34.66C10.29 34.18 10.68 33.79 11.16 33.79L36.83 33.79C37.31 33.79 37.7 34.18 37.7 34.66C37.7 35.14 37.31 35.54 36.83 35.54Z" fill="#FFFFFF" fill-opacity="1.000000" fill-rule="nonzero"/>
			<path id="Vector" d="M24 19.79C22.55 19.79 21.37 18.61 21.37 17.16C21.37 15.72 22.55 14.54 24 14.54C25.44 14.54 26.62 15.72 26.62 17.16C26.62 18.61 25.44 19.79 24 19.79ZM24 16.29C23.52 16.29 23.12 16.68 23.12 17.16C23.12 17.64 23.52 18.04 24 18.04C24.47 18.04 24.87 17.64 24.87 17.16C24.87 16.68 24.47 16.29 24 16.29Z" fill="#FFFFFF" fill-opacity="1.000000" fill-rule="nonzero"/>
			<g opacity="0.000000">
				<path id="Vector" d="M10 9L38 9L38 37L10 37L10 9Z" fill="#FFFFFF" fill-opacity="1.000000" fill-rule="evenodd"/>
			</g>
		</g>
	</g>
</svg>
