<svg width="783" height="469" viewBox="0 0 783 469" fill="none" xmlns="http://www.w3.org/2000/svg">
<circle cx="374" cy="238" r="212.75" stroke="#CCCCCC" stroke-width="2.5"/>
<circle cx="374" cy="242.131" r="159.87" stroke="#CCCCCC" stroke-width="2.5"/>
<circle cx="374" cy="238" r="112.773" stroke="#CCCCCC" stroke-width="2.5"/>
<circle cx="374" cy="238" r="68.1554" stroke="#CCCCCC" stroke-width="2.5"/>
<line x1="372.75" y1="238" x2="372.75" y2="24" stroke="#CCCCCC" stroke-width="2.5"/>
<line x1="272.921" y1="424.143" x2="372.072" y2="239.062" stroke="#CCCCCC" stroke-width="2.5"/>
<line x1="206.222" y1="106.473" x2="371.473" y2="237.848" stroke="#CCCCCC" stroke-width="2.5"/>
<line x1="166.345" y1="283.049" x2="372.082" y2="238.431" stroke="#CCCCCC" stroke-width="2.5"/>
<path d="M473.706 425.333L372 238" stroke="#CCCCCC" stroke-width="2.5"/>
<line x1="541.667" y1="108.441" x2="373.764" y2="237.99" stroke="#CCCCCC" stroke-width="2.5"/>
<line x1="581.123" y1="284.665" x2="373.733" y2="239.221" stroke="#CCCCCC" stroke-width="2.5"/>
<line x1="371.057" y1="240.144" x2="375.189" y2="238.492" stroke="#CCCCCC" stroke-width="2.5"/>
<path opacity="0.56" d="M353.7 200.068C353.7 201.215 353.607 202.241 353.42 203.148C353.247 204.055 352.96 204.828 352.56 205.468C352.173 206.095 351.66 206.575 351.02 206.908C350.393 207.241 349.62 207.408 348.7 207.408C347.553 207.408 346.613 207.115 345.88 206.528C345.147 205.941 344.6 205.101 344.24 204.008C343.893 202.915 343.72 201.601 343.72 200.068C343.72 198.521 343.88 197.201 344.2 196.108C344.52 195.015 345.047 194.175 345.78 193.588C346.513 193.001 347.487 192.708 348.7 192.708C349.847 192.708 350.787 193.001 351.52 193.588C352.253 194.161 352.8 195.001 353.16 196.108C353.52 197.201 353.7 198.521 353.7 200.068ZM346.72 200.068C346.72 201.148 346.78 202.055 346.9 202.788C347.02 203.508 347.22 204.055 347.5 204.428C347.793 204.788 348.193 204.968 348.7 204.968C349.207 204.968 349.6 204.788 349.88 204.428C350.173 204.068 350.38 203.528 350.5 202.808C350.633 202.075 350.7 201.161 350.7 200.068C350.7 198.975 350.633 198.068 350.5 197.348C350.38 196.615 350.173 196.068 349.88 195.708C349.6 195.335 349.207 195.148 348.7 195.148C348.193 195.148 347.793 195.335 347.5 195.708C347.22 196.068 347.02 196.615 346.9 197.348C346.78 198.068 346.72 198.975 346.72 200.068ZM354.745 209.668C355.445 208.188 355.705 206.628 355.705 204.548H358.425C358.425 206.908 357.565 209.008 356.285 210.348L354.745 209.668ZM370.341 200.068C370.341 201.215 370.247 202.241 370.061 203.148C369.887 204.055 369.601 204.828 369.201 205.468C368.814 206.095 368.301 206.575 367.661 206.908C367.034 207.241 366.261 207.408 365.341 207.408C364.194 207.408 363.254 207.115 362.521 206.528C361.787 205.941 361.241 205.101 360.881 204.008C360.534 202.915 360.361 201.601 360.361 200.068C360.361 198.521 360.521 197.201 360.841 196.108C361.161 195.015 361.687 194.175 362.421 193.588C363.154 193.001 364.127 192.708 365.341 192.708C366.487 192.708 367.427 193.001 368.161 193.588C368.894 194.161 369.441 195.001 369.801 196.108C370.161 197.201 370.341 198.521 370.341 200.068ZM363.361 200.068C363.361 201.148 363.421 202.055 363.541 202.788C363.661 203.508 363.861 204.055 364.141 204.428C364.434 204.788 364.834 204.968 365.341 204.968C365.847 204.968 366.241 204.788 366.521 204.428C366.814 204.068 367.021 203.528 367.141 202.808C367.274 202.075 367.341 201.161 367.341 200.068C367.341 198.975 367.274 198.068 367.141 197.348C367.021 196.615 366.814 196.068 366.521 195.708C366.241 195.335 365.847 195.148 365.341 195.148C364.834 195.148 364.434 195.335 364.141 195.708C363.861 196.068 363.661 196.615 363.541 197.348C363.421 198.068 363.361 198.975 363.361 200.068Z" fill="#0D0D0D"/>
<path opacity="0.56" d="M353.7 156.86C353.7 158.007 353.607 159.033 353.42 159.94C353.247 160.847 352.96 161.62 352.56 162.26C352.173 162.887 351.66 163.367 351.02 163.7C350.393 164.033 349.62 164.2 348.7 164.2C347.553 164.2 346.613 163.907 345.88 163.32C345.147 162.733 344.6 161.893 344.24 160.8C343.893 159.707 343.72 158.393 343.72 156.86C343.72 155.313 343.88 153.993 344.2 152.9C344.52 151.807 345.047 150.967 345.78 150.38C346.513 149.793 347.487 149.5 348.7 149.5C349.847 149.5 350.787 149.793 351.52 150.38C352.253 150.953 352.8 151.793 353.16 152.9C353.52 153.993 353.7 155.313 353.7 156.86ZM346.72 156.86C346.72 157.94 346.78 158.847 346.9 159.58C347.02 160.3 347.22 160.847 347.5 161.22C347.793 161.58 348.193 161.76 348.7 161.76C349.207 161.76 349.6 161.58 349.88 161.22C350.173 160.86 350.38 160.32 350.5 159.6C350.633 158.867 350.7 157.953 350.7 156.86C350.7 155.767 350.633 154.86 350.5 154.14C350.38 153.407 350.173 152.86 349.88 152.5C349.6 152.127 349.207 151.94 348.7 151.94C348.193 151.94 347.793 152.127 347.5 152.5C347.22 152.86 347.02 153.407 346.9 154.14C346.78 154.86 346.72 155.767 346.72 156.86ZM354.745 166.46C355.445 164.98 355.705 163.42 355.705 161.34H358.425C358.425 163.7 357.565 165.8 356.285 167.14L354.745 166.46ZM365.641 154.88C366.507 154.88 367.281 155.047 367.961 155.38C368.641 155.713 369.174 156.2 369.561 156.84C369.961 157.48 370.161 158.273 370.161 159.22C370.161 160.247 369.947 161.133 369.521 161.88C369.094 162.627 368.454 163.2 367.601 163.6C366.761 164 365.714 164.2 364.461 164.2C363.714 164.2 363.007 164.133 362.341 164C361.687 163.867 361.114 163.673 360.621 163.42V160.82C361.114 161.073 361.707 161.293 362.401 161.48C363.094 161.653 363.747 161.74 364.361 161.74C364.961 161.74 365.461 161.66 365.861 161.5C366.274 161.34 366.587 161.093 366.801 160.76C367.014 160.427 367.121 160 367.121 159.48C367.121 158.773 366.887 158.24 366.421 157.88C365.954 157.507 365.234 157.32 364.261 157.32C363.887 157.32 363.501 157.36 363.101 157.44C362.701 157.507 362.367 157.573 362.101 157.64L360.901 157L361.441 149.72H369.181V152.28H364.081L363.821 155.08C364.047 155.04 364.287 155 364.541 154.96C364.807 154.907 365.174 154.88 365.641 154.88Z" fill="#0D0D0D"/>
<path opacity="0.56" d="M351.26 119H348.24V110.74C348.24 110.513 348.24 110.233 348.24 109.9C348.253 109.567 348.267 109.22 348.28 108.86C348.293 108.5 348.307 108.18 348.32 107.9C348.253 107.98 348.107 108.127 347.88 108.34C347.667 108.54 347.467 108.72 347.28 108.88L345.64 110.2L344.18 108.38L348.78 104.72H351.26V119ZM354.745 121.46C355.445 119.98 355.705 118.42 355.705 116.34H358.425C358.425 118.7 357.565 120.8 356.285 122.14L354.745 121.46ZM370.341 111.86C370.341 113.007 370.247 114.033 370.061 114.94C369.887 115.847 369.601 116.62 369.201 117.26C368.814 117.887 368.301 118.367 367.661 118.7C367.034 119.033 366.261 119.2 365.341 119.2C364.194 119.2 363.254 118.907 362.521 118.32C361.787 117.733 361.241 116.893 360.881 115.8C360.534 114.707 360.361 113.393 360.361 111.86C360.361 110.313 360.521 108.993 360.841 107.9C361.161 106.807 361.687 105.967 362.421 105.38C363.154 104.793 364.127 104.5 365.341 104.5C366.487 104.5 367.427 104.793 368.161 105.38C368.894 105.953 369.441 106.793 369.801 107.9C370.161 108.993 370.341 110.313 370.341 111.86ZM363.361 111.86C363.361 112.94 363.421 113.847 363.541 114.58C363.661 115.3 363.861 115.847 364.141 116.22C364.434 116.58 364.834 116.76 365.341 116.76C365.847 116.76 366.241 116.58 366.521 116.22C366.814 115.86 367.021 115.32 367.141 114.6C367.274 113.867 367.341 112.953 367.341 111.86C367.341 110.767 367.274 109.86 367.141 109.14C367.021 108.407 366.814 107.86 366.521 107.5C366.241 107.127 365.847 106.94 365.341 106.94C364.834 106.94 364.434 107.127 364.141 107.5C363.861 107.86 363.661 108.407 363.541 109.14C363.421 109.86 363.361 110.767 363.361 111.86Z" fill="#0D0D0D"/>
<path opacity="0.56" d="M351.26 70H348.24V61.74C348.24 61.5133 348.24 61.2333 348.24 60.9C348.253 60.5667 348.267 60.22 348.28 59.86C348.293 59.5 348.307 59.18 348.32 58.9C348.253 58.98 348.107 59.1267 347.88 59.34C347.667 59.54 347.467 59.72 347.28 59.88L345.64 61.2L344.18 59.38L348.78 55.72H351.26V70ZM354.745 72.46C355.445 70.98 355.705 69.42 355.705 67.34H358.425C358.425 69.7 357.565 71.8 356.285 73.14L354.745 72.46ZM365.641 60.88C366.507 60.88 367.281 61.0467 367.961 61.38C368.641 61.7133 369.174 62.2 369.561 62.84C369.961 63.48 370.161 64.2733 370.161 65.22C370.161 66.2467 369.947 67.1333 369.521 67.88C369.094 68.6267 368.454 69.2 367.601 69.6C366.761 70 365.714 70.2 364.461 70.2C363.714 70.2 363.007 70.1333 362.341 70C361.687 69.8667 361.114 69.6733 360.621 69.42V66.82C361.114 67.0733 361.707 67.2933 362.401 67.48C363.094 67.6533 363.747 67.74 364.361 67.74C364.961 67.74 365.461 67.66 365.861 67.5C366.274 67.34 366.587 67.0933 366.801 66.76C367.014 66.4267 367.121 66 367.121 65.48C367.121 64.7733 366.887 64.24 366.421 63.88C365.954 63.5067 365.234 63.32 364.261 63.32C363.887 63.32 363.501 63.36 363.101 63.44C362.701 63.5067 362.367 63.5733 362.101 63.64L360.901 63L361.441 55.72H369.181V58.28H364.081L363.821 61.08C364.047 61.04 364.287 61 364.541 60.96C364.807 60.9067 365.174 60.88 365.641 60.88Z" fill="#0D0D0D"/>
<path opacity="0.56" d="M353.78 19H343.8V16.9L347.38 13.28C348.1 12.5333 348.68 11.9133 349.12 11.42C349.56 10.9133 349.88 10.46 350.08 10.06C350.28 9.64667 350.38 9.20667 350.38 8.74C350.38 8.16667 350.22 7.74 349.9 7.46C349.593 7.18 349.173 7.04 348.64 7.04C348.093 7.04 347.56 7.16667 347.04 7.42C346.52 7.67333 345.973 8.03333 345.4 8.5L343.76 6.56C344.173 6.2 344.607 5.86667 345.06 5.56C345.527 5.25333 346.06 5.00667 346.66 4.82C347.273 4.62 348.007 4.52 348.86 4.52C349.793 4.52 350.593 4.69333 351.26 5.04C351.94 5.37333 352.46 5.83333 352.82 6.42C353.193 6.99333 353.38 7.64667 353.38 8.38C353.38 8.98 353.287 9.53333 353.1 10.04C352.927 10.5467 352.667 11.04 352.32 11.52C351.987 11.9867 351.573 12.4733 351.08 12.98C350.587 13.4733 350.027 14.0133 349.4 14.6L347.56 16.32V16.46H353.78V19ZM354.745 21.46C355.445 19.98 355.705 18.42 355.705 16.34H358.425C358.425 18.7 357.565 20.8 356.285 22.14L354.745 21.46ZM370.341 11.86C370.341 13.0067 370.247 14.0333 370.061 14.94C369.887 15.8467 369.601 16.62 369.201 17.26C368.814 17.8867 368.301 18.3667 367.661 18.7C367.034 19.0333 366.261 19.2 365.341 19.2C364.194 19.2 363.254 18.9067 362.521 18.32C361.787 17.7333 361.241 16.8933 360.881 15.8C360.534 14.7067 360.361 13.3933 360.361 11.86C360.361 10.3133 360.521 8.99333 360.841 7.9C361.161 6.80667 361.687 5.96667 362.421 5.38C363.154 4.79333 364.127 4.5 365.341 4.5C366.487 4.5 367.427 4.79333 368.161 5.38C368.894 5.95333 369.441 6.79333 369.801 7.9C370.161 8.99333 370.341 10.3133 370.341 11.86ZM363.361 11.86C363.361 12.94 363.421 13.8467 363.541 14.58C363.661 15.3 363.861 15.8467 364.141 16.22C364.434 16.58 364.834 16.76 365.341 16.76C365.847 16.76 366.241 16.58 366.521 16.22C366.814 15.86 367.021 15.32 367.141 14.6C367.274 13.8667 367.341 12.9533 367.341 11.86C367.341 10.7667 367.274 9.86 367.141 9.14C367.021 8.40667 366.814 7.86 366.521 7.5C366.241 7.12667 365.847 6.94 365.341 6.94C364.834 6.94 364.434 7.12667 364.141 7.5C363.861 7.86 363.661 8.40667 363.541 9.14C363.421 9.86 363.361 10.7667 363.361 11.86Z" fill="#0D0D0D"/>
<path d="M565.818 81.896L572.748 71.732H576.004V87H572.792V76.77L565.84 87H562.606V71.732H565.818V81.896ZM586.605 79.652V75.494H589.773V87H586.605V82.644H582.139V87H578.971V75.494H582.139V79.652H586.605ZM604.651 80.862L608.853 87H605.135L601.637 81.874V87H598.469V81.852L594.949 87H591.231L595.433 80.862L591.385 75.494H595.059L598.469 80.07V75.494H601.637V80.07L605.025 75.494H608.699L604.651 80.862ZM620.234 80.906V82.248H612.314C612.578 83.59 613.876 84.448 615.614 84.448C616.78 84.448 617.66 84.052 618.452 83.458L619.948 85.702C619.002 86.648 617.374 87.22 615.636 87.22C611.808 87.22 609.058 84.8 609.058 81.17C609.058 77.804 611.456 75.252 614.778 75.252C618.1 75.252 620.234 77.606 620.234 80.906ZM614.734 77.892C613.348 77.892 612.446 78.838 612.314 79.938H617.088C616.956 78.728 616.01 77.892 614.734 77.892ZM630.025 79.652V75.494H633.193V87H630.025V82.644H625.559V87H622.391V75.494H625.559V79.652H630.025ZM646.531 80.906V82.248H638.611C638.875 83.59 640.173 84.448 641.911 84.448C643.077 84.448 643.957 84.052 644.749 83.458L646.245 85.702C645.299 86.648 643.671 87.22 641.933 87.22C638.105 87.22 635.355 84.8 635.355 81.17C635.355 77.804 637.753 75.252 641.075 75.252C644.397 75.252 646.531 77.606 646.531 80.906ZM641.03 77.892C639.645 77.892 638.743 78.838 638.611 79.938H643.385C643.253 78.728 642.307 77.892 641.03 77.892ZM655.464 75.252C657.95 75.252 660.392 77.386 660.392 81.236C660.392 85.086 657.95 87.22 655.464 87.22C653.33 87.22 652.142 85.922 651.856 84.954V91.752H648.688V75.494H651.856V77.518C652.142 76.572 653.33 75.252 655.464 75.252ZM654.43 84.206C655.838 84.206 657.07 83.084 657.07 81.236C657.07 79.388 655.838 78.266 654.43 78.266C653.11 78.266 651.856 79.322 651.856 80.862V81.61C651.856 83.172 653.11 84.206 654.43 84.206ZM670.18 79.652V75.494H673.348V87H670.18V82.644H665.714V87H662.546V75.494H665.714V79.652H670.18ZM680.767 75.252C684.551 75.252 686.047 77.32 686.047 80.048V87H682.923V84.8C682.835 86.098 681.383 87.22 679.447 87.22C677.291 87.22 675.355 85.922 675.355 83.59C675.355 81.192 677.467 79.96 680.173 79.96C681.273 79.96 682.153 80.114 682.923 80.422V80.048C682.923 78.86 681.867 78.156 680.415 78.156C679.073 78.156 677.929 78.618 677.005 79.19L675.883 76.528C677.027 75.802 678.875 75.252 680.767 75.252ZM680.349 84.602C681.603 84.602 682.923 83.854 682.923 82.842V82.754C682.153 82.424 681.383 82.27 680.459 82.27C679.403 82.27 678.523 82.666 678.523 83.436C678.523 84.228 679.315 84.602 680.349 84.602ZM693.027 75.494H698.241V87H695.051V83.414H693.489L691.289 87H687.703L690.387 82.886C689.133 82.27 688.209 81.126 688.209 79.476C688.209 77.012 690.035 75.494 693.027 75.494ZM693.049 80.84H695.051V78.222H693.049C692.147 78.222 691.443 78.706 691.443 79.52C691.443 80.334 692.147 80.84 693.049 80.84ZM568.568 107.84L573.254 114H569.404L565.532 108.918V114H562.364V102.494H565.532V106.982L569.294 102.494H573.034L568.568 107.84ZM579.515 109.644L582.199 102.494H585.631L579.251 118.752H575.841L577.821 113.78L573.377 102.494H576.831L579.515 109.644ZM587.633 107.202L588.117 102.494H597.071V114H593.925V105.486H590.757L590.427 108.39C590.031 111.866 589.393 114.22 585.807 114.22L585.257 111.382C587.215 111.382 587.435 109.336 587.633 107.202ZM602.958 105.926H605.18C607.754 105.926 609.624 107.312 609.624 109.93C609.624 112.504 607.776 114 605.18 114H599.79V102.494H602.958V105.926ZM602.958 111.25H604.894C605.906 111.25 606.434 110.744 606.434 109.952C606.434 109.094 605.862 108.632 604.894 108.632H602.958V111.25ZM609.781 102.494H620.143V105.508H616.557V114H613.367V105.508H609.781V102.494ZM626.845 109.644L629.529 102.494H632.961L626.581 118.752H623.171L625.151 113.78L620.707 102.494H624.161L626.845 109.644ZM641.199 102.252C643.685 102.252 646.127 104.386 646.127 108.236C646.127 112.086 643.685 114.22 641.199 114.22C639.065 114.22 637.877 112.922 637.591 111.954V118.752H634.423V102.494H637.591V104.518C637.877 103.572 639.065 102.252 641.199 102.252ZM640.165 111.206C641.573 111.206 642.805 110.084 642.805 108.236C642.805 106.388 641.573 105.266 640.165 105.266C638.845 105.266 637.591 106.322 637.591 107.862V108.61C637.591 110.172 638.845 111.206 640.165 111.206ZM652.966 102.252C656.75 102.252 658.246 104.32 658.246 107.048V114H655.122V111.8C655.034 113.098 653.582 114.22 651.646 114.22C649.49 114.22 647.554 112.922 647.554 110.59C647.554 108.192 649.666 106.96 652.372 106.96C653.472 106.96 654.352 107.114 655.122 107.422V107.048C655.122 105.86 654.066 105.156 652.614 105.156C651.272 105.156 650.128 105.618 649.204 106.19L648.082 103.528C649.226 102.802 651.074 102.252 652.966 102.252ZM652.548 111.602C653.802 111.602 655.122 110.854 655.122 109.842V109.754C654.352 109.424 653.582 109.27 652.658 109.27C651.602 109.27 650.722 109.666 650.722 110.436C650.722 111.228 651.514 111.602 652.548 111.602Z" fill="black" fill-opacity="0.45"/>
<path d="M616.092 292H612.616L611.582 289.096H605.708L604.674 292H601.22L606.984 276.732H610.328L616.092 292ZM608.656 280.868L606.786 286.082H610.504L608.656 280.868ZM623.468 292H617.682V280.494H623.49C625.822 280.494 627.274 281.572 627.274 283.42C627.274 284.828 626.394 285.598 625.58 285.862C626.504 286.148 627.67 286.984 627.67 288.634C627.67 290.636 626.086 292 623.468 292ZM620.806 283.024V285.092H622.918C623.644 285.092 624.128 284.696 624.128 284.058C624.128 283.42 623.644 283.024 622.918 283.024H620.806ZM620.806 287.226V289.426H623.138C623.996 289.426 624.48 289.03 624.48 288.326C624.48 287.622 623.996 287.226 623.138 287.226H620.806ZM628.877 280.494H639.239V283.508H635.653V292H632.463V283.508H628.877V280.494ZM652.24 286.236C652.24 289.624 649.644 292.22 646.234 292.22C642.824 292.22 640.228 289.624 640.228 286.236C640.228 282.848 642.824 280.252 646.234 280.252C649.644 280.252 652.24 282.848 652.24 286.236ZM643.462 286.236C643.462 287.908 644.65 289.162 646.234 289.162C647.818 289.162 649.006 287.908 649.006 286.236C649.006 284.586 647.818 283.332 646.234 283.332C644.65 283.332 643.462 284.586 643.462 286.236ZM662.033 284.652V280.494H665.201V292H662.033V287.644H657.567V292H654.399V280.494H657.567V284.652H662.033ZM679.374 286.236C679.374 289.624 676.778 292.22 673.368 292.22C669.958 292.22 667.362 289.624 667.362 286.236C667.362 282.848 669.958 280.252 673.368 280.252C676.778 280.252 679.374 282.848 679.374 286.236ZM670.596 286.236C670.596 287.908 671.784 289.162 673.368 289.162C674.952 289.162 676.14 287.908 676.14 286.236C676.14 284.586 674.952 283.332 673.368 283.332C671.784 283.332 670.596 284.586 670.596 286.236ZM688.75 287.688L691.654 280.494H695.944V292H692.886V284.366L689.696 292H687.76L684.614 284.432V292H681.534V280.494H685.868L688.75 287.688ZM706.312 284.652V280.494H709.48V292H706.312V287.644H701.846V292H698.678V280.494H701.846V284.652H706.312ZM723.654 286.236C723.654 289.624 721.058 292.22 717.648 292.22C714.238 292.22 711.642 289.624 711.642 286.236C711.642 282.848 714.238 280.252 717.648 280.252C721.058 280.252 723.654 282.848 723.654 286.236ZM714.876 286.236C714.876 287.908 716.064 289.162 717.648 289.162C719.232 289.162 720.42 287.908 720.42 286.236C720.42 284.586 719.232 283.332 717.648 283.332C716.064 283.332 714.876 284.586 714.876 286.236ZM735.207 281.77L733.711 284.256C733.205 283.772 732.435 283.332 731.401 283.332C729.905 283.332 728.497 284.454 728.497 286.214C728.497 288.04 730.015 289.162 731.555 289.162C732.545 289.162 733.249 288.81 733.711 288.414L735.185 290.79C734.415 291.604 733.139 292.22 731.379 292.22C728.453 292.22 725.241 290.328 725.241 286.236C725.241 282.452 728.431 280.252 731.335 280.252C733.227 280.252 734.547 281.044 735.207 281.77ZM736.148 280.494H746.51V283.508H742.924V292H739.734V283.508H736.148V280.494ZM751.518 283.926H753.74C756.314 283.926 758.184 285.312 758.184 287.93C758.184 290.504 756.336 292 753.74 292H748.35V280.494H751.518V283.926ZM751.518 289.25H753.454C754.466 289.25 754.994 288.744 754.994 287.952C754.994 287.094 754.422 286.632 753.454 286.632H751.518V289.25Z" fill="black" fill-opacity="0.45"/>
<path d="M486.008 444.926L492.41 453H488.362L482.862 446.18V453H479.606V437.732H482.862V444.002L488.208 437.732H492.146L486.008 444.926ZM504.404 447.236C504.404 450.624 501.808 453.22 498.398 453.22C494.988 453.22 492.392 450.624 492.392 447.236C492.392 443.848 494.988 441.252 498.398 441.252C501.808 441.252 504.404 443.848 504.404 447.236ZM495.626 447.236C495.626 448.908 496.814 450.162 498.398 450.162C499.982 450.162 501.17 448.908 501.17 447.236C501.17 445.586 499.982 444.332 498.398 444.332C496.814 444.332 495.626 445.586 495.626 447.236ZM513.779 448.688L516.683 441.494H520.973V453H517.915V445.366L514.725 453H512.789L509.643 445.432V453H506.563V441.494H510.897L513.779 448.688ZM530.924 448.688L533.828 441.494H538.118V453H535.06V445.366L531.87 453H529.934L526.788 445.432V453H523.708V441.494H528.042L530.924 448.688ZM545.714 448.644L548.398 441.494H551.83L545.45 457.752H542.04L544.02 452.78L539.576 441.494H543.03L545.714 448.644ZM560.926 445.652V441.494H564.094V453H560.926V448.644H556.46V453H553.292V441.494H556.46V445.652H560.926ZM569.995 441.494V448.226L574.659 441.494H577.783V453H574.637V446.224L569.951 453H566.827V441.494H569.995ZM586.716 446.84L591.402 453H587.552L583.68 447.918V453H580.512V441.494H583.68V445.982L587.442 441.494H591.182L586.716 446.84ZM597.488 441.252C601.272 441.252 602.768 443.32 602.768 446.048V453H599.644V450.8C599.556 452.098 598.104 453.22 596.168 453.22C594.012 453.22 592.076 451.922 592.076 449.59C592.076 447.192 594.188 445.96 596.894 445.96C597.994 445.96 598.874 446.114 599.644 446.422V446.048C599.644 444.86 598.588 444.156 597.136 444.156C595.794 444.156 594.65 444.618 593.726 445.19L592.604 442.528C593.748 441.802 595.596 441.252 597.488 441.252ZM597.07 450.602C598.324 450.602 599.644 449.854 599.644 448.842V448.754C598.874 448.424 598.104 448.27 597.18 448.27C596.124 448.27 595.244 448.666 595.244 449.436C595.244 450.228 596.036 450.602 597.07 450.602ZM616.083 441.494V449.986H617.601V455.86H614.521V453H605.391V441.494H608.559V449.986H612.937V441.494H616.083ZM622.589 441.494V448.226L627.253 441.494H630.377V453H627.231V446.224L622.545 453H619.421V441.494H622.589ZM637.462 441.494H642.676V453H639.486V449.414H637.924L635.724 453H632.138L634.822 448.886C633.568 448.27 632.644 447.126 632.644 445.476C632.644 443.012 634.47 441.494 637.462 441.494ZM637.484 446.84H639.486V444.222H637.484C636.582 444.222 635.878 444.706 635.878 445.52C635.878 446.334 636.582 446.84 637.484 446.84Z" fill="black" fill-opacity="0.45"/>
<path d="M148.092 461H144.616L143.582 458.096H137.708L136.674 461H133.22L138.984 445.732H142.328L148.092 461ZM140.656 449.868L138.786 455.082H142.504L140.656 449.868ZM157.389 451.562V449.494H160.557V459.636C160.557 464.102 157.873 465.972 154.287 465.972C152.373 465.972 150.591 465.378 149.513 464.608L150.679 461.968C151.625 462.584 152.835 463.046 153.957 463.046C155.717 463.046 157.389 462.144 157.389 459.526V458.756C157.147 459.702 155.937 461.066 153.781 461.066C151.295 461.066 148.853 458.954 148.853 455.17C148.853 451.364 151.295 449.252 153.781 449.252C155.937 449.252 157.147 450.616 157.389 451.562ZM154.815 458.096C156.113 458.096 157.389 457.062 157.389 455.544V454.796C157.389 453.256 156.113 452.222 154.815 452.222C153.407 452.222 152.175 453.344 152.175 455.17C152.175 456.996 153.407 458.096 154.815 458.096ZM164.866 444.324C165.856 444.324 166.648 445.072 166.648 446.084C166.648 447.096 165.856 447.844 164.866 447.844C163.876 447.844 163.084 447.096 163.084 446.084C163.084 445.072 163.876 444.324 164.866 444.324ZM163.282 449.494H166.45V461H163.282V449.494ZM169.169 444.522H172.337V461H169.169V444.522ZM185.659 454.906V456.248H177.739C178.003 457.59 179.301 458.448 181.039 458.448C182.205 458.448 183.085 458.052 183.877 457.458L185.373 459.702C184.427 460.648 182.799 461.22 181.061 461.22C177.233 461.22 174.483 458.8 174.483 455.17C174.483 451.804 176.881 449.252 180.203 449.252C183.525 449.252 185.659 451.606 185.659 454.906ZM180.159 451.892C178.773 451.892 177.871 452.838 177.739 453.938H182.513C182.381 452.728 181.435 451.892 180.159 451.892ZM201.836 455.83L205.532 445.732H210.328V461H207.138V449.516L202.958 461H200.67L196.512 449.538V461H193.344V445.732H198.162L201.836 455.83ZM214.86 444.324C215.85 444.324 216.642 445.072 216.642 446.084C216.642 447.096 215.85 447.844 214.86 447.844C213.87 447.844 213.078 447.096 213.078 446.084C213.078 445.072 213.87 444.324 214.86 444.324ZM213.276 449.494H216.444V461H213.276V449.494ZM225.851 449.252C228.051 449.252 229.987 450.858 229.987 454.026V461H226.819V454.884C226.819 453.102 225.785 452.376 224.663 452.376C223.453 452.376 222.331 453.278 222.331 454.928V461H219.163V449.494H222.331V451.826C222.463 450.572 223.739 449.252 225.851 449.252ZM240.576 451.452V444.522H243.744V461H240.576V459.02C240.246 459.988 239.058 461.22 236.99 461.22C234.504 461.22 232.062 459.086 232.062 455.236C232.062 451.386 234.504 449.252 236.99 449.252C239.058 449.252 240.246 450.506 240.576 451.452ZM238.024 458.206C239.234 458.206 240.4 457.326 240.576 455.962V454.51C240.4 453.168 239.234 452.266 238.024 452.266C236.616 452.266 235.384 453.388 235.384 455.236C235.384 457.084 236.616 458.206 238.024 458.206ZM255.137 450.616L253.927 453.08C253.135 452.376 251.969 451.87 250.715 451.87C249.791 451.87 249.175 452.222 249.175 452.816C249.175 453.41 249.835 453.586 250.627 453.74L251.705 453.938C253.795 454.334 255.445 455.28 255.445 457.48C255.445 459.9 253.399 461.22 250.737 461.22C248.801 461.22 246.931 460.67 245.787 459.834L246.975 457.304C248.053 458.118 249.505 458.602 250.671 458.602C251.529 458.602 252.255 458.316 252.255 457.634C252.255 457.04 251.661 456.82 250.891 456.688L249.835 456.512C247.855 456.182 246.007 455.346 246.007 453.058C246.007 450.66 248.141 449.252 250.825 449.252C252.695 449.252 254.367 449.934 255.137 450.616ZM268.267 454.906V456.248H260.347C260.611 457.59 261.909 458.448 263.647 458.448C264.813 458.448 265.693 458.052 266.485 457.458L267.981 459.702C267.035 460.648 265.407 461.22 263.669 461.22C259.841 461.22 257.091 458.8 257.091 455.17C257.091 451.804 259.489 449.252 262.811 449.252C266.133 449.252 268.267 451.606 268.267 454.906ZM262.767 451.892C261.381 451.892 260.479 452.838 260.347 453.938H265.121C264.989 452.728 264.043 451.892 262.767 451.892ZM276.673 457.92L277.443 460.67C277.003 460.956 276.145 461.22 275.199 461.22C272.515 461.22 271.107 459.746 271.107 457.172V452.354H269.237V449.494H271.107V446.678H274.297V449.494H276.959V452.354H274.297V456.688C274.297 457.568 274.671 458.162 275.617 458.162C276.035 458.162 276.365 458.074 276.673 457.92Z" fill="black" fill-opacity="0.45"/>
<path d="M8.756 278.22C4.246 278.22 0.902 274.876 0.902 270.366C0.902 265.856 4.246 262.512 8.756 262.512C13.244 262.512 16.588 265.856 16.588 270.366C16.588 274.876 13.244 278.22 8.756 278.22ZM8.756 275.03C11.286 275.03 13.222 273.006 13.222 270.366C13.222 267.726 11.286 265.702 8.756 265.702C6.204 265.702 4.268 267.704 4.268 270.366C4.268 273.028 6.204 275.03 8.756 275.03ZM25.6283 266.252C28.1143 266.252 30.5563 268.386 30.5563 272.236C30.5563 276.086 28.1143 278.22 25.6283 278.22C23.4943 278.22 22.3063 276.922 22.0203 275.954V282.752H18.8523V266.494H22.0203V268.518C22.3063 267.572 23.4943 266.252 25.6283 266.252ZM24.5943 275.206C26.0023 275.206 27.2343 274.084 27.2343 272.236C27.2343 270.388 26.0023 269.266 24.5943 269.266C23.2743 269.266 22.0203 270.322 22.0203 271.862V272.61C22.0203 274.172 23.2743 275.206 24.5943 275.206ZM35.8777 266.494V273.226L40.5417 266.494H43.6657V278H40.5197V271.224L35.8337 278H32.7097V266.494H35.8777ZM56.9993 271.906V273.248H49.0793C49.3433 274.59 50.6413 275.448 52.3793 275.448C53.5453 275.448 54.4253 275.052 55.2173 274.458L56.7133 276.702C55.7673 277.648 54.1393 278.22 52.4013 278.22C48.5733 278.22 45.8233 275.8 45.8233 272.17C45.8233 268.804 48.2213 266.252 51.5433 266.252C54.8653 266.252 56.9993 268.606 56.9993 271.906ZM51.4992 268.892C50.1133 268.892 49.2113 269.838 49.0793 270.938H53.8533C53.7213 269.728 52.7753 268.892 51.4992 268.892ZM66.791 270.652V266.494H69.959V278H66.791V273.644H62.325V278H59.157V266.494H62.325V270.652H66.791ZM71.8121 266.494H82.1741V269.508H78.5881V278H75.3981V269.508H71.8121V266.494ZM88.5715 266.252C92.3555 266.252 93.8515 268.32 93.8515 271.048V278H90.7275V275.8C90.6395 277.098 89.1875 278.22 87.2515 278.22C85.0955 278.22 83.1595 276.922 83.1595 274.59C83.1595 272.192 85.2715 270.96 87.9775 270.96C89.0775 270.96 89.9575 271.114 90.7275 271.422V271.048C90.7275 269.86 89.6715 269.156 88.2195 269.156C86.8775 269.156 85.7335 269.618 84.8095 270.19L83.6875 267.528C84.8315 266.802 86.6795 266.252 88.5715 266.252ZM88.1535 275.602C89.4075 275.602 90.7275 274.854 90.7275 273.842V273.754C89.9575 273.424 89.1875 273.27 88.2635 273.27C87.2075 273.27 86.3275 273.666 86.3275 274.436C86.3275 275.228 87.1195 275.602 88.1535 275.602ZM107.167 266.494V274.986H108.685V280.86H105.605V278H96.4753V266.494H99.6433V274.986H104.021V266.494H107.167ZM113.673 266.494V273.226L118.337 266.494H121.461V278H118.315V271.224L113.629 278H110.505V266.494H113.673ZM128.546 266.494H133.76V278H130.57V274.414H129.008L126.808 278H123.222L125.906 273.886C124.652 273.27 123.728 272.126 123.728 270.476C123.728 268.012 125.554 266.494 128.546 266.494ZM128.568 271.84H130.57V269.222H128.568C127.666 269.222 126.962 269.706 126.962 270.52C126.962 271.334 127.666 271.84 128.568 271.84ZM8.998 297.652V293.494H12.166V305H8.998V300.644H4.532V305H1.364V293.494H4.532V297.652H8.998ZM19.5852 293.252C23.3692 293.252 24.8652 295.32 24.8652 298.048V305H21.7412V302.8C21.6532 304.098 20.2012 305.22 18.2652 305.22C16.1092 305.22 14.1732 303.922 14.1732 301.59C14.1732 299.192 16.2852 297.96 18.9912 297.96C20.0912 297.96 20.9712 298.114 21.7412 298.422V298.048C21.7412 296.86 20.6852 296.156 19.2332 296.156C17.8912 296.156 16.7472 296.618 15.8232 297.19L14.7012 294.528C15.8452 293.802 17.6932 293.252 19.5852 293.252ZM19.1672 302.602C20.4212 302.602 21.7412 301.854 21.7412 300.842V300.754C20.9712 300.424 20.2012 300.27 19.2772 300.27C18.2212 300.27 17.3412 300.666 17.3412 301.436C17.3412 302.228 18.1332 302.602 19.1672 302.602ZM39.5942 293.824C42.1462 293.824 44.5002 295.826 44.5002 299.302C44.5002 302.932 42.0802 305.22 38.6262 305.22C35.0182 305.22 32.3782 302.492 32.3782 297.872C32.3782 292.592 34.7322 289.732 39.5282 288.786L43.1362 288.06L43.6642 291.184L40.0122 291.8C37.0202 292.328 35.9862 293.45 35.7882 296.244C36.1402 294.88 37.5922 293.824 39.5942 293.824ZM38.6042 302.162C40.1222 302.162 41.2442 301.084 41.2442 299.346C41.2442 297.586 39.9242 296.64 38.5162 296.64C37.1082 296.64 35.9202 297.63 35.7442 298.928C35.7662 300.71 36.8662 302.162 38.6042 302.162ZM35.7222 299.302V299.28V299.302ZM49.8211 293.494V300.226L54.4851 293.494H57.6091V305H54.4631V298.224L49.7771 305H46.6531V293.494H49.8211ZM67.0926 298.906C68.1926 299.214 69.4466 300.028 69.4466 301.634C69.4466 304.054 67.0046 305.22 64.2986 305.22C62.2526 305.22 60.2726 304.538 59.4586 303.768L60.5806 301.304C61.4386 301.876 62.7146 302.382 64.1666 302.382C65.2006 302.382 66.1686 302.096 66.1686 301.348C66.1686 300.6 65.3106 300.358 64.1006 300.358H62.1866V297.938H64.0126C65.1786 297.938 65.7726 297.63 65.7726 297.014C65.7726 296.398 65.1346 296.068 64.0566 296.068C62.7806 296.068 61.5046 296.552 60.6246 297.19L59.5246 294.726C60.4046 294.022 62.2086 293.252 64.4526 293.252C67.1586 293.252 69.0286 294.352 69.0286 296.442C69.0286 297.85 68.0166 298.62 67.0926 298.906ZM79.1445 297.652V293.494H82.3125V305H79.1445V300.644H74.6785V305H71.5105V293.494H74.6785V297.652H79.1445ZM95.6496 298.906V300.248H87.7296C87.9936 301.59 89.2916 302.448 91.0296 302.448C92.1956 302.448 93.0756 302.052 93.8676 301.458L95.3636 303.702C94.4176 304.648 92.7896 305.22 91.0516 305.22C87.2236 305.22 84.4736 302.8 84.4736 299.17C84.4736 295.804 86.8716 293.252 90.1936 293.252C93.5156 293.252 95.6496 295.606 95.6496 298.906ZM90.1496 295.892C88.7636 295.892 87.8616 296.838 87.7296 297.938H92.5036C92.3716 296.728 91.4256 295.892 90.1496 295.892ZM107.201 294.77L105.705 297.256C105.199 296.772 104.429 296.332 103.395 296.332C101.899 296.332 100.491 297.454 100.491 299.214C100.491 301.04 102.009 302.162 103.549 302.162C104.539 302.162 105.243 301.81 105.705 301.414L107.179 303.79C106.409 304.604 105.133 305.22 103.373 305.22C100.447 305.22 97.2354 303.328 97.2354 299.236C97.2354 295.452 100.425 293.252 103.329 293.252C105.221 293.252 106.541 294.044 107.201 294.77Z" fill="black" fill-opacity="0.45"/>
<path d="M56.756 84.22C52.246 84.22 48.902 80.876 48.902 76.366C48.902 71.856 52.246 68.512 56.756 68.512C61.244 68.512 64.588 71.856 64.588 76.366C64.588 80.876 61.244 84.22 56.756 84.22ZM56.756 81.03C59.286 81.03 61.222 79.006 61.222 76.366C61.222 73.726 59.286 71.702 56.756 71.702C54.204 71.702 52.268 73.704 52.268 76.366C52.268 79.028 54.204 81.03 56.756 81.03ZM73.6723 72.824C76.2243 72.824 78.5783 74.826 78.5783 78.302C78.5783 81.932 76.1583 84.22 72.7043 84.22C69.0963 84.22 66.4563 81.492 66.4563 76.872C66.4563 71.592 68.8103 68.732 73.6063 67.786L77.2143 67.06L77.7423 70.184L74.0903 70.8C71.0983 71.328 70.0643 72.45 69.8663 75.244C70.2183 73.88 71.6703 72.824 73.6723 72.824ZM72.6823 81.162C74.2003 81.162 75.3223 80.084 75.3223 78.346C75.3223 76.586 74.0023 75.64 72.5943 75.64C71.1863 75.64 69.9983 76.63 69.8223 77.928C69.8443 79.71 70.9443 81.162 72.6823 81.162ZM69.8003 78.302V78.28V78.302ZM85.3354 79.644L88.0194 72.494H91.4514L85.0714 88.752H81.6614L83.6414 83.78L79.1974 72.494H82.6514L85.3354 79.644ZM99.5348 76.674V72.494H102.703V84H99.5348V79.6C98.8748 80.018 97.9508 80.216 96.9608 80.216C94.4528 80.216 92.4068 78.852 92.4068 75.662V72.494H95.5528V75.31C95.5528 76.608 96.4768 77.224 97.7088 77.224C98.4128 77.224 99.0508 77.026 99.5348 76.674ZM116.042 77.906V79.248H108.122C108.386 80.59 109.684 81.448 111.422 81.448C112.588 81.448 113.468 81.052 114.26 80.458L115.756 82.702C114.81 83.648 113.182 84.22 111.444 84.22C107.616 84.22 104.866 81.8 104.866 78.17C104.866 74.804 107.264 72.252 110.586 72.252C113.908 72.252 116.042 74.606 116.042 77.906ZM110.542 74.892C109.156 74.892 108.254 75.838 108.122 76.938H112.896C112.764 75.728 111.818 74.892 110.542 74.892ZM125.834 76.652V72.494H129.002V84H125.834V79.644H121.368V84H118.2V72.494H121.368V76.652H125.834ZM134.903 72.494V79.226L139.567 72.494H142.691V84H139.545V77.224L134.859 84H131.735V72.494H134.903ZM156.025 77.906V79.248H148.105C148.369 80.59 149.667 81.448 151.405 81.448C152.571 81.448 153.451 81.052 154.243 80.458L155.739 82.702C154.793 83.648 153.165 84.22 151.427 84.22C147.599 84.22 144.849 81.8 144.849 78.17C144.849 74.804 147.247 72.252 150.569 72.252C153.891 72.252 156.025 74.606 156.025 77.906ZM150.525 74.892C149.139 74.892 148.237 75.838 148.105 76.938H152.879C152.747 75.728 151.801 74.892 150.525 74.892ZM58.758 100.77L57.262 103.256C56.756 102.772 55.986 102.332 54.952 102.332C53.456 102.332 52.048 103.454 52.048 105.214C52.048 107.04 53.566 108.162 55.106 108.162C56.096 108.162 56.8 107.81 57.262 107.414L58.736 109.79C57.966 110.604 56.69 111.22 54.93 111.22C52.004 111.22 48.792 109.328 48.792 105.236C48.792 101.452 51.982 99.252 54.886 99.252C56.778 99.252 58.098 100.044 58.758 100.77ZM70.7961 104.906V106.248H62.8761C63.1401 107.59 64.4381 108.448 66.1761 108.448C67.3421 108.448 68.2221 108.052 69.0141 107.458L70.5101 109.702C69.5641 110.648 67.9361 111.22 66.1981 111.22C62.3701 111.22 59.6201 108.8 59.6201 105.17C59.6201 101.804 62.0181 99.252 65.3401 99.252C68.6621 99.252 70.7961 101.606 70.7961 104.906ZM65.2961 101.892C63.9101 101.892 63.0081 102.838 62.8761 103.938H67.6501C67.5181 102.728 66.5721 101.892 65.2961 101.892ZM79.7738 99.824C82.3258 99.824 84.6798 101.826 84.6798 105.302C84.6798 108.932 82.2598 111.22 78.8058 111.22C75.1978 111.22 72.5578 108.492 72.5578 103.872C72.5578 98.592 74.9118 95.732 79.7078 94.786L83.3158 94.06L83.8438 97.184L80.1918 97.8C77.1998 98.328 76.1658 99.45 75.9678 102.244C76.3198 100.88 77.7718 99.824 79.7738 99.824ZM78.7838 108.162C80.3018 108.162 81.4238 107.084 81.4238 105.346C81.4238 103.586 80.1038 102.64 78.6958 102.64C77.2878 102.64 76.0998 103.63 75.9238 104.928C75.9458 106.71 77.0458 108.162 78.7838 108.162ZM75.9018 105.302V105.28V105.302ZM91.1888 99.494H96.4028V111H93.2128V107.414H91.6508L89.4508 111H85.8648L88.5488 106.886C87.2948 106.27 86.3708 105.126 86.3708 103.476C86.3708 101.012 88.1968 99.494 91.1888 99.494ZM91.2108 104.84H93.2128V102.222H91.2108C90.3088 102.222 89.6048 102.706 89.6048 103.52C89.6048 104.334 90.3088 104.84 91.2108 104.84ZM107.575 99.494V106.226L112.239 99.494H115.363V111H112.217V104.224L107.531 111H104.407V99.494H107.575ZM133.982 99.494V107.986H135.478V113.86H132.398V111H125.336V113.86H122.278V107.986H123.334C123.95 107.128 124.17 106.05 124.346 104.29L124.808 99.494H133.982ZM127.602 102.508L127.382 104.774C127.206 106.446 126.986 107.304 126.502 107.986H130.814V102.508H127.602ZM144.076 99.252C146.562 99.252 149.004 101.386 149.004 105.236C149.004 109.086 146.562 111.22 144.076 111.22C141.942 111.22 140.754 109.922 140.468 108.954V115.752H137.3V99.494H140.468V101.518C140.754 100.572 141.942 99.252 144.076 99.252ZM143.042 108.206C144.45 108.206 145.682 107.084 145.682 105.236C145.682 103.388 144.45 102.266 143.042 102.266C141.722 102.266 140.468 103.322 140.468 104.862V105.61C140.468 107.172 141.722 108.206 143.042 108.206ZM155.761 106.644L158.445 99.494H161.877L155.497 115.752H152.087L154.067 110.78L149.623 99.494H153.077L155.761 106.644ZM163.339 99.494H171.721V102.508H166.507V111H163.339V99.494ZM176.733 99.494V106.226L181.397 99.494H184.521V111H181.375V104.224L176.689 111H173.565V99.494H176.733ZM194.093 105.17L198.031 111H194.335L191.981 107.392L189.561 111H185.953L189.913 105.126L186.085 99.494H189.781L192.025 102.904L194.313 99.494H197.921L194.093 105.17Z" fill="black" fill-opacity="0.45"/>
<path d="M285 165C305.164 204.596 326.511 223.456 373.5 240" stroke="#28BE46" stroke-width="2.5"/>
<path d="M372.5 83C418.865 122.578 446.211 135.413 497 143.5" stroke="#28BE46" stroke-width="2.5"/>
<path d="M294.5 384C294.5 384 264.504 281.899 307 253C328.564 238.335 372.5 240 372.5 240" stroke="#28BE46" stroke-width="2.5"/>
<path d="M425.5 339.5C377.878 375.851 348.984 384.51 294.5 384" stroke="#28BE46" stroke-width="2.5"/>
<path d="M582 285.5C510.354 295.232 475.118 306.016 425.5 339.5" stroke="#28BE46" stroke-width="2.5"/>
<path d="M497 143.5C541.609 198.547 560.328 229.621 582 285.5" stroke="#28BE46" stroke-width="2.5"/>
<path d="M284.5 166.5L372.5 83" stroke="#28BE46" stroke-width="2.5"/>
<path d="M195.5 273C178.562 283.809 234.649 385.511 272 420.5" stroke="#C60303" stroke-width="2.5"/>
<path d="M272 420.5C374.731 405.476 413.599 411.271 474.5 428" stroke="#C60303" stroke-width="2.5"/>
<path d="M582 283.5C525.746 324.079 501.146 354.537 474.5 428" stroke="#C60303" stroke-width="2.5"/>
<path d="M582 283.5L527 113" stroke="#C60303" stroke-width="2.5"/>
<path d="M527 113L371 36" stroke="#C60303" stroke-width="2.5"/>
<path d="M371 36C314.175 53.6879 283.598 71.1059 232.5 122" stroke="#C60303" stroke-width="2.5"/>
<path d="M232.5 122C239.251 171.872 210.454 263.457 195.5 273" stroke="#C60303" stroke-width="2.5"/>
<path d="M166.5 282L175 302C207.613 367.033 238.432 375.261 290 396.5C363.546 409.184 399.14 406.078 465.5 409.5" stroke="#DE960B" stroke-width="2.5"/>
<path d="M527.5 274C478.028 323.157 477.821 354.813 465.5 409.5" stroke="#DE960B" stroke-width="2.5"/>
<path d="M507 132C524.681 206.743 527.629 234.754 527.5 274" stroke="#DE960B" stroke-width="2.5"/>
<path d="M373 50.4998C426.227 94.0468 455.808 115.029 507 132" stroke="#DE960B" stroke-width="2.5"/>
<path d="M206.5 108.5C271.132 61.505 307.61 50.1636 373 50.4999" stroke="#DE960B" stroke-width="2.5"/>
<path d="M166.5 282L206.5 108.5" stroke="#DE960B" stroke-width="2.5"/>
</svg>
