<svg width="47.000000" height="46.000000" viewBox="0 0 47 46" fill="none" xmlns="http://www.w3.org/2000/svg" >
	<desc>
			Created with Pixso.
	</desc>
	<defs>
		<clipPath id="clip10_8281">
			<rect id="Frame 14" rx="22.500000" width="46.000000" height="45.000000" transform="translate(0.500000 0.500000)" fill="white" fill-opacity="0"/>
		</clipPath>
	</defs>
	<g opacity="0.500000">
		<rect id="Frame 14" rx="22.500000" width="46.000000" height="45.000000" transform="translate(0.500000 0.500000)" fill="#000000" fill-opacity="1.000000"/>
		<g clip-path="url(#clip10_8281)">
			<rect id="vuesax/outline/calendar" rx="-0.500000" width="27.000000" height="27.000000" transform="translate(10.500000 9.500000)" fill="#FFFFFF" fill-opacity="0"/>
			<path id="Vector" d="M19.33 15.7C18.85 15.7 18.45 15.31 18.45 14.83L18.45 11.33C18.45 10.85 18.85 10.45 19.33 10.45C19.81 10.45 20.2 10.85 20.2 11.33L20.2 14.83C20.2 15.31 19.81 15.7 19.33 15.7Z" fill="#FFFFFF" fill-opacity="1.000000" fill-rule="nonzero"/>
			<path id="Vector" d="M28.66 15.7C28.18 15.7 27.79 15.31 27.79 14.83L27.79 11.33C27.79 10.85 28.18 10.45 28.66 10.45C29.14 10.45 29.54 10.85 29.54 11.33L29.54 14.83C29.54 15.31 29.14 15.7 28.66 15.7Z" fill="#FFFFFF" fill-opacity="1.000000" fill-rule="nonzero"/>
			<path id="Vector" d="M19.91 25.91C19.76 25.91 19.61 25.88 19.47 25.82C19.32 25.76 19.2 25.68 19.08 25.57C18.87 25.35 18.75 25.06 18.75 24.75C18.75 24.59 18.78 24.44 18.84 24.3C18.9 24.16 18.98 24.03 19.08 23.92C19.2 23.81 19.32 23.73 19.47 23.67C19.89 23.5 20.41 23.59 20.74 23.92C20.95 24.14 21.08 24.44 21.08 24.75C21.08 24.82 21.07 24.9 21.05 24.98C21.04 25.05 21.02 25.12 20.99 25.19C20.96 25.26 20.93 25.33 20.88 25.4C20.84 25.46 20.79 25.52 20.74 25.57C20.52 25.78 20.21 25.91 19.91 25.91Z" fill="#FFFFFF" fill-opacity="1.000000" fill-rule="nonzero"/>
			<path id="Vector" d="M24 25.91C23.84 25.91 23.69 25.88 23.55 25.82C23.4 25.76 23.28 25.68 23.17 25.57C22.96 25.35 22.83 25.06 22.83 24.74C22.83 24.59 22.86 24.44 22.92 24.3C22.98 24.16 23.06 24.03 23.17 23.92C23.28 23.81 23.4 23.73 23.55 23.67C23.97 23.48 24.5 23.59 24.82 23.92C25.03 24.14 25.16 24.44 25.16 24.74C25.16 24.81 25.15 24.9 25.14 24.98C25.13 25.05 25.1 25.12 25.07 25.19C25.04 25.26 25.01 25.33 24.96 25.4C24.93 25.46 24.87 25.51 24.82 25.57C24.6 25.78 24.3 25.91 24 25.91Z" fill="#FFFFFF" fill-opacity="1.000000" fill-rule="nonzero"/>
			<path id="Vector" d="M28.08 25.91C27.93 25.91 27.78 25.88 27.64 25.82C27.48 25.76 27.37 25.68 27.25 25.57C27.2 25.51 27.16 25.46 27.11 25.4C27.06 25.33 27.03 25.26 27.01 25.19C26.97 25.12 26.95 25.05 26.94 24.98C26.92 24.9 26.91 24.81 26.91 24.74C26.91 24.44 27.04 24.14 27.25 23.92C27.37 23.81 27.48 23.73 27.64 23.67C28.07 23.48 28.58 23.59 28.91 23.92C29.12 24.14 29.25 24.44 29.25 24.74C29.25 24.81 29.23 24.9 29.22 24.98C29.21 25.05 29.19 25.12 29.15 25.19C29.13 25.26 29.09 25.33 29.05 25.4C29.01 25.46 28.95 25.51 28.91 25.57C28.69 25.78 28.38 25.91 28.08 25.91Z" fill="#FFFFFF" fill-opacity="1.000000" fill-rule="nonzero"/>
			<path id="Vector" d="M19.91 30C19.76 30 19.61 29.96 19.47 29.9C19.33 29.84 19.2 29.76 19.08 29.66C18.87 29.43 18.75 29.13 18.75 28.83C18.75 28.68 18.78 28.52 18.84 28.38C18.9 28.23 18.98 28.1 19.08 28C19.51 27.57 20.31 27.57 20.74 28C20.95 28.22 21.08 28.52 21.08 28.83C21.08 29.13 20.95 29.43 20.74 29.66C20.52 29.87 20.21 30 19.91 30Z" fill="#FFFFFF" fill-opacity="1.000000" fill-rule="nonzero"/>
			<path id="Vector" d="M24 30C23.69 30 23.39 29.87 23.17 29.66C22.96 29.43 22.83 29.13 22.83 28.83C22.83 28.68 22.86 28.52 22.92 28.38C22.98 28.23 23.06 28.1 23.17 28C23.6 27.57 24.39 27.57 24.82 28C24.93 28.1 25.01 28.23 25.07 28.38C25.13 28.52 25.16 28.68 25.16 28.83C25.16 29.13 25.03 29.43 24.82 29.66C24.6 29.87 24.3 30 24 30Z" fill="#FFFFFF" fill-opacity="1.000000" fill-rule="nonzero"/>
			<path id="Vector" d="M28.08 30C27.78 30 27.47 29.87 27.25 29.66C27.15 29.55 27.06 29.42 27.01 29.27C26.95 29.13 26.91 28.98 26.91 28.83C26.91 28.68 26.95 28.52 27.01 28.38C27.06 28.23 27.15 28.1 27.25 28C27.52 27.73 27.93 27.6 28.3 27.68C28.38 27.7 28.45 27.72 28.52 27.75C28.59 27.78 28.66 27.81 28.73 27.86C28.79 27.89 28.85 27.95 28.91 28C29.12 28.22 29.25 28.52 29.25 28.83C29.25 29.13 29.12 29.43 28.91 29.66C28.69 29.87 28.38 30 28.08 30Z" fill="#FFFFFF" fill-opacity="1.000000" fill-rule="nonzero"/>
			<path id="Vector" d="M33.91 20.48L14.08 20.48C13.6 20.48 13.2 20.08 13.2 19.6C13.2 19.12 13.6 18.73 14.08 18.73L33.91 18.73C34.39 18.73 34.79 19.12 34.79 19.6C34.79 20.08 34.39 20.48 33.91 20.48Z" fill="#FFFFFF" fill-opacity="1.000000" fill-rule="nonzero"/>
			<path id="Vector" d="M28.66 35.54L19.33 35.54C15.07 35.54 12.62 33.09 12.62 28.83L12.62 18.91C12.62 14.65 15.07 12.2 19.33 12.2L28.66 12.2C32.92 12.2 35.37 14.65 35.37 18.91L35.37 28.83C35.37 33.09 32.92 35.54 28.66 35.54ZM19.33 13.95C15.99 13.95 14.37 15.57 14.37 18.91L14.37 28.83C14.37 32.16 15.99 33.79 19.33 33.79L28.66 33.79C32 33.79 33.62 32.16 33.62 28.83L33.62 18.91C33.62 15.57 32 13.95 28.66 13.95L19.33 13.95Z" fill="#FFFFFF" fill-opacity="1.000000" fill-rule="nonzero"/>
			<g opacity="0.000000">
				<path id="Vector" d="M10 9L38 9L38 37L10 37L10 9Z" fill="#FFFFFF" fill-opacity="1.000000" fill-rule="evenodd"/>
			</g>
		</g>
	</g>
</svg>
