<svg width="36.000000" height="36.000000" viewBox="0 0 36 36" fill="none" xmlns="http://www.w3.org/2000/svg">
	<desc>
			Created with Pixso.
	</desc>
	<defs/>
	<rect id="Rectangle 4175" rx="8.000000" width="36.000000" height="36.000000" fill="#28BE46" fill-opacity="1.000000"/>
	<path id="Line 77" d="M4.61 19.41L4.58 19.41C3.79 18.62 3.79 17.37 4.58 16.58C5.37 15.79 6.62 15.79 7.41 16.58L7.41 16.61L4.61 19.41ZM15.38 24.58L15.41 24.58C16.2 25.37 16.2 26.62 15.41 27.41C14.62 28.2 13.37 28.2 12.58 27.41L12.58 27.38L15.38 24.58Z" fill="#28BE46" fill-opacity="1.000000" fill-rule="nonzero"/>
	<path id="Line 77" d="M6 18L14 26" stroke="#FFFFFF" stroke-opacity="1.000000" stroke-width="4.000000" stroke-linecap="round"/>
	<path id="Line 78" d="M28.58 8.61L28.58 8.58C29.37 7.79 30.62 7.79 31.41 8.58C32.2 9.37 32.2 10.62 31.41 11.41L31.38 11.41L28.58 8.61ZM15.41 27.38L15.41 27.41C14.62 28.2 13.37 28.2 12.58 27.41C11.79 26.62 11.79 25.37 12.58 24.58L12.61 24.58L15.41 27.38Z" fill="#28BE46" fill-opacity="1.000000" fill-rule="nonzero"/>
	<path id="Line 78" d="M30 10L14 26" stroke="#FFFFFF" stroke-opacity="1.000000" stroke-width="4.000000" stroke-linecap="round"/>
</svg>
