<svg width="534" height="89" viewBox="0 0 534 89" fill="none" xmlns="http://www.w3.org/2000/svg">
<path d="M324 12.5498L324 80.844" stroke="black" stroke-width="4"/>
<path d="M350.648 25.4319C352.44 25.9439 354.488 27.4799 354.488 30.5519C354.488 34.6159 351.32 37.0159 346.744 37.0159H337.336V14.8079H346.808C351.192 14.8079 353.848 17.2079 353.848 20.6639C353.848 23.4479 352.216 24.8559 350.648 25.4319ZM348.952 21.3999C348.952 19.9279 347.896 19.0639 346.168 19.0639H342.072V23.7999H346.168C347.896 23.7999 348.952 22.9039 348.952 21.3999ZM342.072 27.6079V32.6959H346.424C348.184 32.6959 349.624 31.9279 349.624 30.1359C349.624 28.3759 348.184 27.6079 346.424 27.6079H342.072ZM364.842 29.5919L374.922 14.8079H379.658V37.0159H374.986V22.1359L364.874 37.0159H360.17V14.8079H364.842V29.5919ZM385.062 14.8079H404.102V19.3199H396.934V37.0159H392.198V19.3199H385.062V14.8079ZM409.525 14.8079H418.133C422.741 14.8079 426.069 17.3999 426.069 22.1039C426.069 26.7759 422.709 29.3359 418.133 29.3359H414.261V37.0159H409.525V14.8079ZM414.261 24.9839H417.941C419.989 24.9839 421.205 23.8319 421.205 22.1039C421.205 20.4079 419.989 19.3199 417.941 19.3199H414.261V24.9839ZM436.343 29.5919L446.423 14.8079H451.159V37.0159H446.487V22.1359L436.375 37.0159H431.671V14.8079H436.343V29.5919ZM472.723 23.5119V14.8079H477.459V37.0159H472.723V27.9919H462.803V37.0159H458.067V14.8079H462.803V23.5119H472.723ZM503.955 37.0159H498.899L497.395 32.7919H488.851L487.347 37.0159H482.323L490.707 14.8079H495.571L503.955 37.0159ZM493.139 20.8239L490.419 28.4079H495.827L493.139 20.8239ZM337.336 77.0159V54.8079H356.568V77.0159H351.832V59.3199H342.072V77.0159H337.336ZM363.482 54.8079H372.09C376.698 54.8079 380.026 57.3999 380.026 62.1039C380.026 66.7759 376.666 69.3359 372.09 69.3359H368.218V77.0159H363.482V54.8079ZM368.218 64.9839H371.898C373.946 64.9839 375.162 63.8319 375.162 62.1039C375.162 60.4079 373.946 59.3199 371.898 59.3199H368.218V64.9839ZM396.029 77.3359C389.468 77.3359 384.604 72.4719 384.604 65.9119C384.604 59.3519 389.468 54.4879 396.029 54.4879C402.557 54.4879 407.42 59.3519 407.42 65.9119C407.42 72.4719 402.557 77.3359 396.029 77.3359ZM396.029 72.6959C399.708 72.6959 402.524 69.7519 402.524 65.9119C402.524 62.0719 399.708 59.1279 396.029 59.1279C392.316 59.1279 389.5 62.0399 389.5 65.9119C389.5 69.7839 392.316 72.6959 396.029 72.6959ZM428.314 54.8079V59.2879H418.042V63.5759H427.898V67.9279H418.042V72.5359H428.314V77.0159H413.306V54.8079H428.314ZM443.733 65.2719L453.045 77.0159H447.157L439.157 67.0959V77.0159H434.421V54.8079H439.157V63.9279L446.933 54.8079H452.661L443.733 65.2719ZM456.313 54.8079H475.353V59.3199H468.185V77.0159H463.449V59.3199H456.313V54.8079ZM490.27 77.3359C483.71 77.3359 478.846 72.4719 478.846 65.9119C478.846 59.3519 483.71 54.4879 490.27 54.4879C496.798 54.4879 501.662 59.3519 501.662 65.9119C501.662 72.4719 496.798 77.3359 490.27 77.3359ZM490.27 72.6959C493.95 72.6959 496.766 69.7519 496.766 65.9119C496.766 62.0719 493.95 59.1279 490.27 59.1279C486.558 59.1279 483.742 62.0399 483.742 65.9119C483.742 69.7839 486.558 72.6959 490.27 72.6959ZM520.859 65.4319C522.651 65.9439 524.699 67.4799 524.699 70.5519C524.699 74.6159 521.531 77.0159 516.955 77.0159H507.547V54.8079H517.019C521.403 54.8079 524.059 57.2079 524.059 60.6639C524.059 63.4479 522.427 64.8559 520.859 65.4319ZM519.163 61.3999C519.163 59.9279 518.107 59.0639 516.379 59.0639H512.283V63.7999H516.379C518.107 63.7999 519.163 62.9039 519.163 61.3999ZM512.283 67.6079V72.6959H516.635C518.395 72.6959 519.835 71.9279 519.835 70.1359C519.835 68.3759 518.395 67.6079 516.635 67.6079H512.283Z" fill="black"/>
<g clip-path="url(#clip0_801_567)">
<path d="M107.265 40.3688L96.9192 36.5884L86.5689 40.3688L76.2229 36.5884L65.8725 40.3688L55.5266 36.5884L45.1806 40.3688V53.5824L55.5266 57.3669L65.8725 53.5824L76.2229 57.3669L86.5689 53.5824L96.9192 57.3669L107.265 53.5824V40.3688Z" fill="black"/>
<path d="M107.265 19.5903L96.9192 15.8099L86.5689 19.5903L76.2229 15.8099L65.8725 19.5903L55.5266 15.8099L45.1806 19.5903V32.8082L55.5266 36.5886L65.8725 32.8082L76.2229 36.5886L86.5689 32.8082L96.9192 36.5886L107.265 32.8082V19.5903Z" fill="#28BE46"/>
<path d="M65.8721 19.5903L55.5217 23.3753L45.1758 19.5903L55.5217 15.8099L65.8721 19.5903Z" fill="black"/>
<path d="M86.5635 19.5903L76.2178 23.3753L65.8718 19.5903L76.2178 15.8099L86.5635 19.5903Z" fill="black"/>
<path d="M107.261 19.5903L96.915 23.3753L86.5647 19.5903L96.915 15.8099L107.261 19.5903Z" fill="black"/>
<path d="M45.1758 53.5832L55.5217 49.8027L65.8721 53.5832L55.5217 57.3682L45.1758 53.5832Z" fill="#28BE46"/>
<path d="M86.5689 53.5832L96.9146 49.8027L107.265 53.5832L96.9146 57.3682L86.5689 53.5832Z" fill="#28BE46"/>
<path d="M86.5635 40.3693L76.2178 44.1497L65.8718 40.3693V53.5828L76.2178 57.3678L86.5635 53.5828V40.3693Z" fill="#28BE46"/>
<path d="M107.265 61.1482L96.9192 57.3678L86.5689 61.1482L76.2229 57.3678L65.8725 61.1482L55.5266 57.3678L45.1806 61.1482V74.3613L55.5266 78.1417L65.8725 74.3613L76.2229 78.1417L86.5689 74.3613L96.9192 78.1417L107.265 74.3613V61.1482Z" fill="black"/>
<path d="M45.1758 74.3618L55.5217 70.5814L65.8721 74.3618L55.5217 78.1422L45.1758 74.3618Z" fill="#28BE46"/>
<path d="M86.5689 74.3618L96.9146 70.5814L107.265 74.3618L96.9146 78.1422L86.5689 74.3618Z" fill="#28BE46"/>
<path d="M86.5635 61.1478L76.2178 64.9282L65.8718 61.1478V74.3609L76.2178 78.1417L86.5635 74.3609V61.1478Z" fill="#28BE46"/>
<path d="M131.158 17.136H149.912V21.4632H142.845V38.4442H138.186V21.4632H131.158V17.136Z" fill="black"/>
<path d="M164.549 16.8228C170.972 16.8228 175.74 21.5007 175.74 27.7848C175.74 34.0689 170.972 38.7468 164.549 38.7468C158.127 38.7468 153.32 34.0689 153.32 27.7848C153.32 21.5007 158.081 16.8228 164.549 16.8228ZM170.941 27.7848C170.918 26.5172 170.522 25.2847 169.804 24.2421C169.085 23.1995 168.076 22.3933 166.902 21.9248C165.729 21.4563 164.444 21.3464 163.208 21.6089C161.973 21.8714 160.842 22.4946 159.959 23.4002C159.075 24.3058 158.477 25.4534 158.241 26.6989C158.005 27.9443 158.141 29.232 158.631 30.4003C159.122 31.5685 159.945 32.5652 160.998 33.2651C162.051 33.9649 163.287 34.3368 164.549 34.334C165.401 34.3395 166.245 34.1729 167.03 33.8438C167.816 33.5148 168.528 33.0302 169.123 32.4189C169.718 31.8076 170.184 31.0823 170.494 30.2861C170.804 29.4899 170.95 28.6391 170.925 27.7848H170.941Z" fill="black"/>
<path d="M182.302 17.136H187.226L193.5 24.5974L199.767 17.136H204.628V38.4442H200.109V22.9991L193.5 31.0764L186.861 23.0615V38.4442H182.302V17.136Z" fill="black"/>
<path d="M222.194 21.2824C221.324 21.2522 220.458 21.3981 219.645 21.7114C218.832 22.0248 218.091 22.4992 217.465 23.1063C216.839 23.7135 216.341 24.441 216.001 25.2454C215.661 26.0498 215.486 26.9148 215.486 27.7887C215.486 28.6626 215.661 29.5275 216.001 30.332C216.341 31.1364 216.839 31.8639 217.465 32.471C218.091 33.0782 218.832 33.5525 219.645 33.8659C220.458 34.1793 221.324 34.3252 222.194 34.2949C223.31 34.2992 224.409 34.0232 225.391 33.4921C226.373 32.961 227.207 32.1917 227.817 31.2543L231.156 34.1468C230.166 35.6139 228.823 36.8053 227.25 37.6097C225.677 38.4141 223.927 38.8053 222.163 38.7468C215.827 38.7468 210.903 34.3573 210.903 27.7848C210.903 21.2122 216.23 16.8228 222.132 16.8228C227.149 16.8228 229.991 19.497 231.156 21.4306L227.817 24.3153C227.206 23.3793 226.371 22.6115 225.39 22.0819C224.407 21.5521 223.309 21.2774 222.194 21.2824Z" fill="black"/>
<path d="M237.152 38.4442V17.136H241.812V38.4442H237.152ZM249.507 17.136H254.679L247.247 26.4062L256.023 38.4442H250.517L241.835 26.5934L249.507 17.136Z" fill="black"/>
<path d="M265.994 31.3493L275.903 17.136H280.563V38.4442H275.903V24.1375L265.963 38.4442H261.303V17.136H265.916L265.994 31.3493Z" fill="black"/>
<path d="M293.251 31.3482L303.16 17.1349H307.819V38.4431H303.16V24.1363L293.22 38.4431H288.56V17.1349H293.22L293.251 31.3482ZM296.31 10.2973C296.283 10.5645 296.31 10.8346 296.39 11.091C296.469 11.3475 296.601 11.5848 296.775 11.7885C296.949 11.9921 297.164 12.1579 297.404 12.2755C297.645 12.3932 297.907 12.4602 298.174 12.4726C298.442 12.4578 298.704 12.3894 298.945 12.2715C299.186 12.1535 299.401 11.9883 299.578 11.7856C299.754 11.5829 299.889 11.3469 299.973 11.0913C300.058 10.8357 300.09 10.5657 300.069 10.2973H303.463C303.463 13.5173 301.133 15.482 298.174 15.482C295.215 15.482 292.855 13.5173 292.855 10.2973H296.31Z" fill="black"/>
<path d="M152.901 76.6478H148.242V59.6667H138.488V76.6478H133.829V55.3395H152.901V76.6478Z" fill="black"/>
<path d="M170.219 55.0253C176.642 55.0253 181.418 59.7036 181.418 65.9876C181.418 72.2717 176.642 76.9496 170.219 76.9496C163.797 76.9496 158.998 72.2717 158.998 65.9876C158.998 59.7036 163.774 55.0253 170.219 55.0253ZM176.611 65.9876C176.595 64.718 176.206 63.4815 175.492 62.434C174.778 61.3861 173.772 60.5736 172.599 60.0994C171.426 59.6248 170.14 59.5096 168.902 59.7678C167.663 60.0261 166.529 60.6462 165.641 61.5502C164.754 62.4543 164.153 63.6021 163.914 64.8486C163.674 66.095 163.808 67.385 164.297 68.5556C164.787 69.7262 165.61 70.7248 166.664 71.4265C167.718 72.1279 168.955 72.5005 170.219 72.4976C171.069 72.5063 171.912 72.343 172.697 72.018C173.483 71.6927 174.195 71.2118 174.791 70.6041C175.387 69.9969 175.856 69.2748 176.168 68.4818C176.481 67.6884 176.632 66.8403 176.611 65.9876Z" fill="black"/>
<path d="M184.843 76.8037V72.5391H186.039C187.903 72.5391 188.85 71.65 188.85 69.1629V55.3395H205.368V76.6478H200.708V59.6356H193.284V69.4203C193.284 73.8411 191.358 76.7883 186.528 76.7883L184.843 76.8037Z" fill="black"/>
<path d="M218.064 69.5529L227.973 55.3395H232.633V76.6478H227.973V62.3412L218.134 76.6478H213.475V55.3395H218.134L218.064 69.5529Z" fill="black"/>
<path d="M238.713 55.3395H257.46V59.6667H250.393V76.6478H245.733V59.6667H238.698L238.713 55.3395Z" fill="black"/>
<path d="M263.548 55.3395H279.638V59.6356H268.23V63.7833H276.276V67.9313H268.23V72.3517H279.762V76.6478H263.548V55.3395Z" fill="black"/>
<path d="M295.573 62.5828L300.955 55.3395H306.282L298.447 65.8417L306.616 76.6478H300.9L295.177 69.2176L289.493 76.6478H284.142L292.312 65.8417L284.453 55.3395H290.106L295.573 62.5828Z" fill="black"/>
</g>
<defs>
<clipPath id="clip0_801_567">
<rect width="263" height="68.3953" fill="white" transform="translate(45 10.0399)"/>
</clipPath>
</defs>
</svg>
