<svg width="102" height="32" viewBox="0 0 164 38" fill="none" xmlns="http://www.w3.org/2000/svg">
<path d="M65.824 10.208C66.72 10.464 67.744 11.232 67.744 12.768C67.744 14.8 66.16 16 63.872 16H59.168V4.896H63.904C66.096 4.896 67.424 6.096 67.424 7.824C67.424 9.216 66.608 9.92 65.824 10.208ZM64.976 8.192C64.976 7.456 64.448 7.024 63.584 7.024H61.536V9.392H63.584C64.448 9.392 64.976 8.944 64.976 8.192ZM61.536 11.296V13.84H63.712C64.592 13.84 65.312 13.456 65.312 12.56C65.312 11.68 64.592 11.296 63.712 11.296H61.536ZM72.9209 12.288L77.9609 4.896H80.3289V16H77.9929V8.56L72.9369 16H70.5849V4.896H72.9209V12.288ZM83.031 4.896H92.551V7.152H88.967V16H86.599V7.152H83.031V4.896ZM95.2624 4.896H99.5664C101.87 4.896 103.534 6.192 103.534 8.544C103.534 10.88 101.854 12.16 99.5664 12.16H97.6304V16H95.2624V4.896ZM97.6304 9.984H99.4704C100.494 9.984 101.102 9.408 101.102 8.544C101.102 7.696 100.494 7.152 99.4704 7.152H97.6304V9.984ZM108.671 12.288L113.712 4.896H116.08V16H113.743V8.56L108.687 16H106.335V4.896H108.671V12.288ZM126.862 9.248V4.896H129.23V16H126.862V11.488H121.902V16H119.534V4.896H121.902V9.248H126.862ZM142.477 16H139.949L139.197 13.888H134.925L134.173 16H131.661L135.853 4.896H138.285L142.477 16ZM137.069 7.904L135.709 11.696H138.413L137.069 7.904ZM59.168 36V24.896H68.784V36H66.416V27.152H61.536V36H59.168ZM72.2411 24.896H76.5451C78.8491 24.896 80.5131 26.192 80.5131 28.544C80.5131 30.88 78.8331 32.16 76.5451 32.16H74.6091V36H72.2411V24.896ZM74.6091 29.984H76.4491C77.4731 29.984 78.0811 29.408 78.0811 28.544C78.0811 27.696 77.4731 27.152 76.4491 27.152H74.6091V29.984ZM88.5143 36.16C85.2342 36.16 82.8022 33.728 82.8022 30.448C82.8022 27.168 85.2342 24.736 88.5143 24.736C91.7783 24.736 94.2102 27.168 94.2102 30.448C94.2102 33.728 91.7783 36.16 88.5143 36.16ZM88.5143 33.84C90.3542 33.84 91.7622 32.368 91.7622 30.448C91.7622 28.528 90.3542 27.056 88.5143 27.056C86.6582 27.056 85.2502 28.512 85.2502 30.448C85.2502 32.384 86.6582 33.84 88.5143 33.84ZM104.657 24.896V27.136H99.521V29.28H104.449V31.456H99.521V33.76H104.657V36H97.153V24.896H104.657ZM112.366 30.128L117.023 36H114.078L110.078 31.04V36H107.71V24.896H110.078V29.456L113.966 24.896H116.83L112.366 30.128ZM118.657 24.896H128.177V27.152H124.593V36H122.225V27.152H118.657V24.896ZM135.635 36.16C132.355 36.16 129.923 33.728 129.923 30.448C129.923 27.168 132.355 24.736 135.635 24.736C138.899 24.736 141.331 27.168 141.331 30.448C141.331 33.728 138.899 36.16 135.635 36.16ZM135.635 33.84C137.475 33.84 138.883 32.368 138.883 30.448C138.883 28.528 137.475 27.056 135.635 27.056C133.779 27.056 132.371 28.512 132.371 30.448C132.371 32.384 133.779 33.84 135.635 33.84ZM150.93 30.208C151.826 30.464 152.85 31.232 152.85 32.768C152.85 34.8 151.266 36 148.978 36H144.274V24.896H149.01C151.202 24.896 152.53 26.096 152.53 27.824C152.53 29.216 151.714 29.92 150.93 30.208ZM150.082 28.192C150.082 27.456 149.554 27.024 148.69 27.024H146.642V29.392H148.69C149.554 29.392 150.082 28.944 150.082 28.192ZM146.642 31.296V33.84H148.818C149.698 33.84 150.418 33.456 150.418 32.56C150.418 31.68 149.698 31.296 148.818 31.296H146.642Z" fill="black"/>
<path d="M47 2L47 38" stroke="black" stroke-width="3"/>
<path d="M36 16.1833L30.0009 14L23.9992 16.1833L18.0001 14L11.9983 16.1833L5.99916 14L0 16.1833V23.8144L5.99916 26L11.9983 23.8144L18.0001 26L23.9992 23.8144L30.0009 26L36 23.8144V16.1833Z" fill="black"/>
<path d="M36 4.18325L30.0009 2L23.9992 4.18325L18.0001 2L11.9983 4.18325L5.99916 2L0 4.18325V11.8168L5.99916 14L11.9983 11.8168L18.0001 14L23.9992 11.8168L30.0009 14L36 11.8168V4.18325Z" fill="#28BE46"/>
<path d="M12 3.99881L5.99869 6L0 3.99881L5.99869 2L12 3.99881Z" fill="black"/>
<path d="M24 3.99881L18.0001 6L12 3.99881L18.0001 2L24 3.99881Z" fill="black"/>
<path d="M36 3.99881L30.0013 6L24 3.99881L30.0013 2L36 3.99881Z" fill="black"/>
<path d="M0 23.9988L5.99869 22L12 23.9988L5.99869 26L0 23.9988Z" fill="#28BE46"/>
<path d="M24 23.9988L29.9987 22L36 23.9988L29.9987 26L24 23.9988Z" fill="#28BE46"/>
<path d="M24 16L18.0001 18.224L12 16V23.7734L18.0001 26L24 23.7734V16Z" fill="#28BE46"/>
<path d="M36 28.1837L30.0009 26L23.9992 28.1837L18.0001 26L11.9983 28.1837L5.99916 26L0 28.1837V35.8163L5.99916 38L11.9983 35.8163L18.0001 38L23.9992 35.8163L30.0009 38L36 35.8163V28.1837Z" fill="black"/>
<path d="M0 36L5.99869 34L12 36L5.99869 38L0 36Z" fill="#28BE46"/>
<path d="M24 36L29.9987 34L36 36L29.9987 38L24 36Z" fill="#28BE46"/>
<path d="M24 29L18.0001 31.0021L12 29V35.9977L18.0001 38L24 35.9977V29Z" fill="#28BE46"/>
</svg>
